<svg width="42" height="42" viewBox="0 0 42 42" fill="none" xmlns="http://www.w3.org/2000/svg">
<path d="M14.7108 15.6144C15.2112 15.6144 15.62 16.0232 15.62 16.5236V18.8966V22.4844V30.1114C15.62 30.6118 15.2112 31.0206 14.7108 31.0206M14.7108 15.6144H9.25407C8.75496 15.6144 8.34612 16.0232 8.34612 16.5236V30.1114C8.34612 30.6118 8.75496 31.0206 9.25407 31.0206H14.7108M14.7108 15.6144C15.9231 13.7276 18.3477 13.6606 20.1662 12.6843C21.9331 11.619 22.6115 10.3268 23.1944 8.47227C23.4743 7.5837 24.3074 6.93758 25.2928 6.93758C26.4148 6.93758 27.3408 7.77457 27.4749 8.85659C27.5252 9.27315 27.4246 9.8406 27.3408 10.2559C26.932 12.2742 25.7351 14.0745 23.6007 15.6144H31.7284C32.7872 15.6144 33.6539 16.481 33.6539 17.5399C33.6539 18.5987 32.7872 19.4653 31.7284 19.4653H30.516C31.5749 19.4653 32.4416 20.332 32.4416 21.3921C32.4416 22.4509 31.5749 23.3175 30.516 23.3175H30.0621C31.1209 23.3175 31.9876 24.1842 31.9876 25.243C31.9876 26.3031 31.1209 27.1697 30.0621 27.1697H28.6976C29.7564 27.1697 30.6231 28.0364 30.6231 29.0952C30.6231 30.154 29.7564 31.0206 28.6976 31.0206H22.8939H14.7108M27.4698 2.07042C25.4398 1.37658 23.2641 1 21.0006 1C9.95438 1 1 9.95409 1 21C1 23.7238 1.54554 26.3198 2.53087 28.6864M40.724 17.674C40.9059 18.756 41 19.8664 41 21C41 32.0446 32.0456 41 21.0006 41C16.1256 41 11.6632 39.2512 8.19523 36.3521M11.9831 26.4243V28.1421M37.3837 9.52979C38.0775 10.519 38.6837 11.5726 39.1918 12.6817L37.3837 9.52979Z" stroke="white" stroke-linecap="round" stroke-linejoin="round"/>
</svg>
