<svg width="42" height="42" viewBox="0 0 42 42" fill="none" xmlns="http://www.w3.org/2000/svg">
<path d="M11.2557 3.52095C24.4019 -3.78394 41 5.62101 41 21.0019C41 21.7053 40.9629 22.3998 40.8913 23.0841M20.9757 1.00599C21.6277 5.40781 19.1258 4.8346 17.4677 6.9653C15.3084 9.7407 21.3861 7.01381 21.606 8.78833C21.8118 10.476 23.6093 12.5646 24.3278 9.15473C24.5477 8.10278 30.4119 5.70144 29.2511 11.3671C28.9622 12.7829 33.0251 14.26 26.1087 15.8749C21.2301 17.0137 19.1821 7.30361 17.4677 13.9664C16.9985 15.7868 13.4099 13.1212 12.6722 15.8979C12.3577 17.0826 9.64613 18.9822 13.9916 20.767C21.6622 23.9202 19.8443 27.731 21.8745 34.4167C22.8422 37.6019 29.012 34.2699 26.5638 27.5472C25.2368 23.9049 33.2475 26.2565 31.822 22.2504C31.8105 22.2172 24.595 16.932 32.8921 18.3669C35.9105 18.8878 33.5927 17.509 34.9223 15.4868C35.6702 14.3481 39.5221 16.2017 40.192 15.363M38.5556 30.5677C36.2736 34.7397 32.5495 38.013 28.0493 39.7096M22.6441 40.9288C11.3835 41.8697 1.67374 33.3712 1 22.1202M5.98594 7.74405C6.34007 7.34446 6.71082 6.95892 7.09563 6.5887" stroke="white" stroke-linecap="round" stroke-linejoin="round"/>
</svg>
