<svg width="66" height="66" viewBox="0 0 66 66" fill="none" xmlns="http://www.w3.org/2000/svg">
<path fill-rule="evenodd" clip-rule="evenodd" d="M32.8074 0C14.6846 0 0 14.688 0 32.8074C0 50.9263 14.6846 65.6142 32.8074 65.6142C50.9306 65.6142 65.6152 50.9263 65.6152 32.8074C65.6152 14.688 50.9306 0 32.8074 0ZM29.7774 46.4769C22.2278 46.4769 16.1078 40.3569 16.1078 32.8074C16.1078 25.2578 22.2278 19.1378 29.7774 19.1378V9.65412C16.9901 9.65412 6.62462 20.0201 6.62462 32.8074C6.62462 45.5946 16.9901 55.9601 29.7774 55.9601V46.4769ZM52.5035 46.4769C46.5486 46.4769 41.4838 42.6678 39.6102 37.354H49.2362V28.2602H39.6102C41.4838 22.9469 46.5486 19.1378 52.5035 19.1378V9.65412C39.7167 9.65412 29.3507 20.0201 29.3507 32.8074C29.3507 45.5946 39.7167 55.9601 52.5035 55.9601V46.4769Z" fill="white"/>
</svg>
