<svg width="101" height="130" viewBox="0 0 101 130" fill="none" xmlns="http://www.w3.org/2000/svg">
<path fill-rule="evenodd" clip-rule="evenodd" d="M55.8779 9.46146C50.1641 5.54491 44.3792 2.31944 38.9099 0C40.9421 5.10002 40.7425 10.3987 38.8175 15.8474C32.5099 33.7168 13.0318 44.5055 4.26394 63.5421C-4.70351 83.0111 0.911752 104.527 16.9953 118.441C39.1881 137.642 76.1694 131.968 92.4139 108.475C97.5413 101.062 99.8318 92.4739 100.046 83.6148C100.79 53.0522 80.0281 26.0149 55.8779 9.46146Z" fill="url(#paint0_linear)"/>
<path fill-rule="evenodd" clip-rule="evenodd" d="M49.066 43.1937C50.7468 47.5779 45.318 55.7691 38.9048 63.7942C29.2616 75.8627 16.0611 85.2278 20.8612 102.469C22.3267 107.728 25.4238 112.59 29.8965 116.453C38.596 123.967 51.1578 124.994 61.4002 120.764C86.8562 110.248 79.7416 82.8013 67.4874 64.2015C59.3884 51.9067 49.776 43.494 49.066 43.1937Z" fill="url(#paint1_linear)"/>
<path fill-rule="evenodd" clip-rule="evenodd" d="M49.2813 76.4321C52.9296 85.1488 29.3206 96.5269 33.2593 109.483C34.0924 112.218 35.8507 114.748 38.3916 116.757C43.3344 120.666 50.4699 121.2 56.2876 118.999C78.8408 110.467 54.0936 78.2963 49.2813 76.4321Z" fill="url(#paint2_linear)"/>
<defs>
<linearGradient id="paint0_linear" x1="50.0329" y1="0" x2="50.4184" y2="79.964" gradientUnits="userSpaceOnUse">
<stop stop-color="#FF8D07"/>
<stop offset="0.348958" stop-color="#F8491E"/>
<stop offset="1" stop-color="#DD0F0F"/>
</linearGradient>
<linearGradient id="paint1_linear" x1="49.2153" y1="43.1937" x2="49.2153" y2="123.242" gradientUnits="userSpaceOnUse">
<stop stop-color="#FFAB07"/>
<stop offset="1" stop-color="#FF5722" stop-opacity="0.46"/>
</linearGradient>
<linearGradient id="paint2_linear" x1="49.2228" y1="76.4321" x2="49.0002" y2="148.5" gradientUnits="userSpaceOnUse">
<stop stop-color="#FFAB07"/>
<stop offset="1" stop-color="#FF2E00" stop-opacity="0.88"/>
</linearGradient>
</defs>
</svg>
